<svg width="200" height="57" viewBox="0 0 200 57" fill="none" xmlns="http://www.w3.org/2000/svg">
<path fill-rule="evenodd" clip-rule="evenodd" d="M57.9175 19.3137C58.7699 20.6321 59.8423 21.7925 61.0874 22.7439C62.3503 23.7147 64.0608 24.87 66.2189 26.2098C68.5596 27.6873 70.4075 28.9578 71.7626 30.0213C73.1364 31.1066 74.3032 32.4334 75.2064 33.9373C76.1472 35.4854 76.6176 37.2991 76.6176 39.3784C76.6176 41.735 76.0094 43.8373 74.793 45.6854C73.5766 47.5336 71.8547 48.9788 69.6273 50.021C67.4007 51.0598 64.8647 51.5797 62.0194 51.5805C60.0094 51.5697 58.0081 51.3128 56.0599 50.8154C54.0167 50.3054 52.4673 49.6818 51.4114 48.9448C50.9981 48.6668 50.7686 48.2277 50.7229 47.6275L50.3096 37.0921V37.0232C50.3096 36.8383 50.425 36.7337 50.6545 36.7108C50.884 36.6878 51.0209 36.7694 51.0678 36.9543C52.5826 40.7892 54.3155 43.9308 56.2665 46.3791C58.2175 48.8274 60.7083 50.052 63.7388 50.0529C65.7134 50.0529 67.3665 49.5101 68.6978 48.4245C70.0292 47.3389 70.6949 45.5252 70.6949 42.9833C70.6949 40.9507 70.2473 39.1719 69.3521 37.6468C68.5032 36.1751 67.3809 34.8811 66.0465 33.8353C64.7379 32.8152 62.9589 31.5676 60.7095 30.0927C58.5041 28.6585 56.7801 27.445 55.5375 26.4521C54.2703 25.4285 53.1966 24.1841 52.3675 22.7783C51.4951 21.3238 51.0589 19.6235 51.0589 17.6776C51.0589 15.2752 51.7246 13.2422 53.056 11.5785C54.3874 9.91484 56.1203 8.6792 58.2547 7.8716C60.4028 7.05938 62.6802 6.64799 64.975 6.65764C66.5466 6.65867 68.1145 6.80982 69.6577 7.10905C71.2198 7.40829 72.5301 7.79084 73.5884 8.2567C74.2765 8.53468 74.621 8.97377 74.6218 9.57394L74.8285 19C74.8285 19.139 74.7017 19.2308 74.4481 19.278C74.1945 19.3252 74.0462 19.278 74.0005 19.139C73.1325 16.4245 71.8914 13.8454 70.3132 11.4765C68.7756 9.19225 66.4708 8.05012 63.3989 8.05012C61.3321 8.05012 59.6905 8.65115 58.4741 9.85321C57.2577 11.0553 56.6495 12.6956 56.6495 14.7741C56.6453 16.4862 57.0679 17.9994 57.9175 19.3137ZM98.9481 46.309C99.085 46.309 99.2118 46.4021 99.3285 46.587C99.4451 46.7719 99.4312 46.9096 99.293 47.0027C97.5956 48.6179 95.9894 49.7842 94.4746 50.5017C92.9681 51.2163 91.3219 51.5835 89.6563 51.5767C87.6825 51.5767 86.0185 51.1032 84.6643 50.1562C83.3101 49.2091 82.6338 47.6267 82.6355 45.4087V29.7446C82.6355 28.2194 82.3946 27.2027 81.9127 26.6944C81.4309 26.186 80.5011 25.931 79.1232 25.9293C79.0775 25.9293 79.0205 25.8719 78.952 25.7571C78.8834 25.6414 78.8472 25.5092 78.8472 25.3745C78.8472 25.2399 78.8834 25.1077 78.952 24.992C79.0205 24.876 79.0788 24.8186 79.1232 24.8186C83.4394 24.6341 86.1482 22.7639 87.2497 19.2078C87.3427 19.0234 87.5379 18.9311 87.8355 18.9311C88.1335 18.9311 88.2831 19.0229 88.2831 19.2078V24.6834C90.4412 24.6375 93.4945 24.4067 97.443 23.991C97.5343 23.991 97.6383 24.1631 97.7524 24.51C97.8714 24.8806 97.9297 25.2682 97.9248 25.6576C97.9228 26.0848 97.8411 26.5079 97.6839 26.9047C97.5233 27.3205 97.3513 27.5054 97.1678 27.4595C94.5964 26.8584 91.6348 26.489 88.2831 26.3513V43.1211C88.2831 44.9233 88.7307 46.2516 89.6259 47.106C90.5211 47.9603 91.7721 48.3879 93.3791 48.3888C95.3081 48.3888 97.1218 47.7185 98.82 46.3778L98.9481 46.309ZM126.06 46.3778C126.151 46.3778 126.255 46.4709 126.369 46.6558C126.484 46.8407 126.496 46.9797 126.405 47.0715C124.706 48.6425 123.007 49.7859 121.308 50.5017C119.561 51.2279 117.688 51.5934 115.798 51.5767C112.998 51.5767 110.576 50.9527 108.533 49.7048C106.553 48.5258 104.933 46.8239 103.848 44.7839C102.771 42.7594 102.214 40.4962 102.228 38.2002C102.203 35.5685 102.894 32.9799 104.227 30.715C105.543 28.4653 107.433 26.6104 109.702 25.3427C112.02 24.0267 114.602 23.3683 117.449 23.3674C120.203 23.3674 122.338 24.0378 123.854 25.3784C125.369 26.719 126.127 28.7057 126.126 31.3385C126.126 32.6783 125.851 33.3482 125.301 33.3482L108.496 33.4183C108.442 34.0403 108.419 34.6647 108.428 35.289C108.428 39.3559 109.357 42.5787 111.217 44.9573C113.077 47.3359 115.729 48.5261 119.172 48.5278C120.458 48.5278 121.537 48.3777 122.408 48.0776C123.28 47.7776 124.451 47.2348 125.921 46.4492L126.06 46.3778ZM110.806 26.7288C109.727 28.0464 109.004 29.8602 108.637 32.1699L119.655 31.9621C119.562 27.1572 118.002 24.7544 114.973 24.7535C113.274 24.7535 111.885 25.412 110.806 26.7288ZM155.894 47.0039C156.078 47.0039 156.194 47.1072 156.239 47.3151C156.267 47.4027 156.262 47.4977 156.223 47.5813C156.185 47.6649 156.117 47.731 156.033 47.7665L148.94 51.1623C148.746 51.2566 148.534 51.3042 148.319 51.3013C147.631 51.3013 146.977 50.8966 146.357 50.0873C145.736 49.278 145.334 48.2039 145.151 46.865L141.981 49.0825C140.882 49.868 139.883 50.4227 138.985 50.7466C138.022 51.0807 137.008 51.2446 135.99 51.2311C134.107 51.2311 132.67 50.7806 131.678 49.8794C130.687 48.9783 130.193 47.7882 130.197 46.309C130.197 45.0619 130.531 44.0456 131.197 43.2601C131.898 42.4442 132.768 41.7916 133.745 41.3473C134.777 40.8619 136.304 40.2498 138.324 39.5111L145.005 37.0156V32.8636C145.005 29.9979 144.718 27.907 144.144 26.5911C143.57 25.2751 142.666 24.615 141.433 24.6107C139.917 24.6107 138.827 25.1765 138.162 26.308C137.489 27.4631 137.077 28.7531 136.956 30.0863C136.681 32.4428 135.51 33.6211 133.444 33.6211C132.434 33.6211 131.688 33.3898 131.206 32.9274C130.97 32.7061 130.784 32.4374 130.66 32.1387C130.535 31.84 130.475 31.5182 130.483 31.1944C130.483 29.9014 131.252 28.6424 132.789 27.4174C134.327 26.1924 136.187 25.199 138.368 24.4373C140.548 23.6722 142.465 23.2897 144.119 23.2897C146.093 23.2897 147.666 23.9136 148.836 25.1616C150.005 26.4096 150.591 28.2798 150.592 30.7723V43.2486C150.592 44.681 150.821 45.7666 151.28 46.5054C151.482 46.855 151.774 47.1429 152.126 47.3383C152.478 47.5337 152.876 47.6293 153.277 47.6148C153.967 47.6148 154.794 47.4069 155.757 46.9912L155.894 47.0039ZM145.014 45.7556V38.2002L140.881 39.9331C139.692 40.3947 138.717 40.9375 137.956 41.5615C137.195 42.1855 136.815 43.0752 136.815 44.2305C136.815 45.3356 137.171 46.2248 137.883 46.8981C138.579 47.5619 139.507 47.923 140.466 47.9029C141.292 47.9029 142.165 47.6258 143.083 47.0715L145.014 45.7556ZM178.944 24.876C179.908 25.568 180.391 26.3994 180.391 27.3702C180.391 28.2484 180.126 28.9646 179.598 29.5188C179.07 30.0731 178.347 30.3498 177.429 30.349C176.908 30.3689 176.394 30.236 175.948 29.9664C175.502 29.6616 175.097 29.3003 174.743 28.8915C174.409 28.5422 174.039 28.2285 173.641 27.9555C173.289 27.7394 172.883 27.6312 172.471 27.6443C171.964 27.6443 171.424 27.8407 170.852 28.2335C170.279 28.6262 169.395 29.4462 168.2 30.6933V45.6637C168.2 46.9585 168.384 47.9403 168.752 48.6094C169.119 49.2784 169.739 49.7524 170.611 50.0312C171.483 50.3075 172.769 50.446 174.468 50.4469C174.652 50.4469 174.743 50.5859 174.743 50.8626C174.743 51.1393 174.652 51.2783 174.468 51.2783C172.953 51.2783 171.736 51.2554 170.817 51.2095L165.376 51.1393L161.382 51.2095C160.739 51.2554 159.844 51.2783 158.697 51.2783C158.558 51.2783 158.49 51.1393 158.49 50.8626C158.49 50.5859 158.558 50.4469 158.697 50.4469C160.258 50.4469 161.291 50.1234 161.796 49.4765C162.3 48.8296 162.554 47.5586 162.556 45.6637V32.4288C162.556 30.9513 162.384 29.8657 162.04 29.172C161.696 28.4783 161.134 28.1315 160.353 28.1315C159.665 28.1315 158.517 28.4783 156.91 29.172H156.84C156.658 29.172 156.52 29.056 156.428 28.8252C156.337 28.5943 156.358 28.4554 156.497 28.4094L165.515 23.9731C165.671 23.9132 165.832 23.8667 165.996 23.8341C166.455 23.8341 166.914 24.331 167.373 25.3248C167.832 26.3186 168.108 27.6239 168.2 29.2409C169.991 27.2082 171.483 25.7988 172.677 25.0124C173.872 24.2261 174.95 23.8333 175.913 23.8341C176.97 23.8341 177.98 24.181 178.944 24.8747V24.876ZM188.534 31.2008C189.521 32.1716 190.956 33.1883 192.838 34.251C194.491 35.1742 195.765 35.9363 196.66 36.5374C197.595 37.1782 198.391 38.0023 199.002 38.9602C199.668 39.9803 200.001 41.2045 200 42.6327C200.009 44.1681 199.605 45.6774 198.83 47.0001C198.048 48.3391 196.889 49.4246 195.351 50.2569C193.814 51.0892 191.989 51.5053 189.876 51.5053C187.423 51.5247 185.013 50.8524 182.92 49.5645C182.645 49.2865 182.508 49.0098 182.508 48.7318L182.37 42.356C182.37 42.217 182.497 42.1366 182.75 42.1137C183.004 42.0907 183.151 42.1252 183.198 42.217C183.978 44.5276 185.162 46.422 186.748 47.9004C188.335 49.3787 190.022 50.1183 191.81 50.1192C192.958 50.1192 193.853 49.8187 194.496 49.2176C195.138 48.6166 195.46 47.7155 195.46 46.5143C195.46 44.7588 194.953 43.3612 193.939 42.3215C192.925 41.2818 191.455 40.2536 189.531 39.2369C187.969 38.4055 186.752 37.7007 185.881 37.1227C184.974 36.5091 184.211 35.7051 183.643 34.7662C183.025 33.7766 182.716 32.5418 182.716 31.0618C182.716 28.4265 183.669 26.4627 185.574 25.1705C187.479 23.8784 189.786 23.2314 192.495 23.2297C194.378 23.2464 196.243 23.5983 198.004 24.269C198.417 24.4535 198.624 24.7085 198.624 25.0341C198.624 26.0967 198.601 26.9286 198.556 27.5296L198.486 30.8552C198.486 30.9942 198.349 31.0643 198.073 31.0643C197.796 31.0643 197.66 30.9942 197.66 30.8552C197.66 29.932 197.293 28.9735 196.559 27.9797C195.801 26.9674 194.839 26.1285 193.735 25.5186C192.668 24.8942 191.457 24.5597 190.222 24.5482C188.109 24.5482 187.052 25.565 187.052 27.5984C187.052 29.0292 187.546 30.2295 188.534 31.1995V31.2008Z" fill="black"/>
<path fill-rule="evenodd" clip-rule="evenodd" d="M12.9029 29.4959C12.7102 30.8606 12.0899 32.1279 11.1321 33.1139C10.1743 34.0999 8.92893 34.7531 7.57681 34.9787C6.22468 35.2044 4.83625 34.9906 3.61315 34.3686C2.39005 33.7465 1.39599 32.7485 0.775338 31.5196C0.154686 30.2906 -0.0602338 28.8947 0.161794 27.5345C0.383822 26.1743 1.03123 24.9208 2.01 23.9559C2.98877 22.991 4.24792 22.365 5.60458 22.1688C6.96124 21.9726 8.34476 22.2165 9.55419 22.865L17.5818 11.363C16.361 10.2828 15.5915 8.7783 15.4275 7.15135C15.2635 5.52441 15.7173 3.89527 16.6977 2.59065C17.6781 1.28603 19.1127 0.402396 20.7138 0.11696C22.3149 -0.168477 23.9641 0.165388 25.3307 1.0516C26.6973 1.93781 27.6802 3.31084 28.0823 4.89533C28.4844 6.47982 28.276 8.15862 27.4989 9.59505C26.7217 11.0315 25.4333 12.1193 23.892 12.6404C22.3507 13.1615 20.6705 13.0774 19.1883 12.4048L11.0923 24.0089C12.0582 24.9745 12.6914 26.2257 12.8991 27.5793H30.9045C31.0865 26.2382 31.6827 24.9885 32.609 24.0064C33.5352 23.0244 34.7448 22.3597 36.0669 22.1062C37.389 21.8527 38.7569 22.0231 39.9775 22.5934C41.1981 23.1638 42.2098 24.1052 42.8697 25.2848C43.5297 26.4645 43.8046 27.8228 43.6557 29.168C43.5068 30.5132 42.9416 31.7775 42.0398 32.7823C41.138 33.7871 39.9452 34.4817 38.6298 34.7681C37.3144 35.0545 35.9427 34.9182 34.7084 34.3785L26.45 45.9124C27.6014 47.0658 28.2767 48.6143 28.3403 50.2474C28.4039 51.8805 27.8513 53.4774 26.7932 54.7178C25.7351 55.9583 24.2498 56.7506 22.6351 56.9359C21.0204 57.1211 19.3958 56.6856 18.0871 55.7166C16.7784 54.7477 15.8823 53.317 15.5786 51.7115C15.2748 50.1059 15.5859 48.4442 16.4494 47.0597C17.3129 45.6752 18.665 44.6701 20.2345 44.2462C21.804 43.8222 23.4749 44.0106 24.912 44.7737L33.0841 33.3571C31.932 32.3687 31.1678 30.9998 30.9286 29.4959H12.9029Z" fill="#ED4933"/>
</svg>
